<svg xmlns="http://www.w3.org/2000/svg" viewBox="0 0 1275.3 395.3"><defs><style>.cls-1{fill:#252a30;}.cls-2{fill:#fff;}.cls-3{opacity:0.1;isolation:isolate;}</style></defs><title>banner.white</title><g id="Layer_2" data-name="Layer 2"><g id="Layer_1-2" data-name="Layer 1"><g id="banner"><g id="letter"><path class="cls-1" d="M510.1,197.7Z"/><path class="cls-2" d="M158.8,157.9V316.4H133.4V291.3h-.3c-12.7,16.9-32.2,27-55.3,27C33.9,318.3,0,286.7,0,238.2c0-46.9,32.5-82.3,77.5-82.3,21.8,0,41.3,9.1,54.7,25.7h.3V157.8h26.3Zm-25.4,80.4c0-32.5-22.5-57.9-53.1-57.9-29.9,0-53.7,22.8-53.7,57.9,0,31.9,21.2,56,53.4,56C108.7,294.3,133.4,271.8,133.4,238.3Z"/><path class="cls-2" d="M209.6,76.9H236V316.5H209.6Z"/><path class="cls-2" d="M438.1,157.9V316.4H412.7V291.3h-.3c-12.7,16.9-32.2,27-55.3,27-43.9,0-77.8-31.6-77.8-80.1,0-46.9,32.5-82.3,77.5-82.3,21.8,0,41.3,9.1,54.7,25.7h.3V157.8h26.3Zm-25.4,80.4c0-32.5-22.5-57.9-53.1-57.9-29.9,0-53.7,22.8-53.7,57.9,0,31.9,21.2,56,53.4,56C388,294.3,412.7,271.8,412.7,238.3Z"/><path class="cls-2" d="M859.6,157.9V316.4H834.2V291.3h-.3c-12.7,16.9-32.2,27-55.3,27-43.9,0-77.8-31.6-77.8-80.1,0-46.9,32.5-82.3,77.5-82.3,21.8,0,41.3,9.1,54.7,25.7h.3V157.8h26.3Zm-25.4,80.4c0-32.5-22.5-57.9-53.1-57.9-29.9,0-53.7,22.8-53.7,57.9,0,31.9,21.2,56,53.4,56C809.4,294.3,834.2,271.8,834.2,238.3Z"/><path class="cls-2" d="M993,156.3v29.3c-3.6-.3-7.8-.7-10.4-.7-29.9,0-48.2,23.1-48.2,55v76.5H908V157.9h26.4v28h.3C946.4,167,965,156,986.5,156A40.36,40.36,0,0,1,993,156.3Z"/><path class="cls-2" d="M1027.8,269.2V180.7h-20.2V157.9h20.2v-54l26.4-2.9v57h52.7v22.8h-52.7v84.5c0,18.9,4.6,28.3,19.5,28.3,9.4,0,19.2-3.9,26.7-8.1l7.2,23.1c-8.8,4.9-19.9,9.8-38.4,9.8C1040.9,318.4,1027.8,301.1,1027.8,269.2Z"/><path class="cls-2" d="M1274.6,245.5H1152.5c3.6,29.6,24.4,48.8,53.1,48.8a55.3,55.3,0,0,0,44.6-21.5l18.6,15.9c-13.7,17.6-35.2,29.6-64.1,29.6-44.9,0-78.8-32.9-78.8-81,0-47.8,32.9-81.4,75.8-81.4,44.3,0,73.6,33.2,73.6,78.8C1275.2,239,1274.6,244.5,1274.6,245.5Zm-121.1-21.8h95.7c-4.2-26-20.8-43.3-46.2-43.3C1178.2,180.4,1158.4,196.7,1153.5,223.7Z"/></g><g id="K"><path class="cls-2" d="M569.8,291.3l-36.4,41.3v62.7H462.9V0h70.5V239.3h.5l94.2-106.1h81.6L617.3,237.4l94,157.9H633l-62.2-104Z"/><polygon class="cls-3" points="709.7 133.2 532.7 332.5 533.6 238.8 627.3 133.2 709.7 133.2"/></g></g></g></g></svg>